<?xml version="1.0"?>
<svg xmlns="http://www.w3.org/2000/svg" xmlns:xlink="http://www.w3.org/1999/xlink" xmlns:svgjs="http://svgjs.com/svgjs" version="1.1" width="512" height="512" x="0" y="0" viewBox="0 0 512 512" style="enable-background:new 0 0 512 512" xml:space="preserve" class=""><g><title xmlns="http://www.w3.org/2000/svg">a1</title><path xmlns="http://www.w3.org/2000/svg" d="M422.538,297.784l-1.911,1.031c-9.073-10.773-24.592-14.9-36.44-8.9l-.133.069-4.961,2.674a40,40,0,0,0-45.591-3.918L305.525,304H268.272a53.585,53.585,0,0,1-23.178-5.356l-5.138-2.507a88.567,88.567,0,0,0-92.178,8.991c-.132.1-.259.2-.382.307L134.99,316.477a42.615,42.615,0,0,1-15.687,8.847l-6.93-22.9A6.161,6.161,0,0,0,106.634,298h-60a6.276,6.276,0,0,0-5.956,6.984l20,163.871A5.889,5.889,0,0,0,66.634,474h90a5.763,5.763,0,0,0,5.739-7.493l-11.736-38.452,36.546-23.082a21.768,21.768,0,0,1,15.854-2.036c.124.031.25.064.376.086l74.9,13.8a97.376,97.376,0,0,0,60.154-8.492,5.992,5.992,0,0,0,.734-.43l129.557-88.955a6,6,0,0,0,1.744-8.041A35.97,35.97,0,0,0,422.538,297.784Zm-32.865,2.807c6.479-3.242,14.589-.71,19.957,4.157l-48.61,26.224-2.455,1.294a43,43,0,0,0-6.336-11.5ZM339.3,299.2l.143-.08a27.975,27.975,0,0,1,27.833-.1l-24.094,12.981a42.884,42.884,0,0,0-14.827-6.852ZM71.946,462,53.41,310h48.78l46.342,152Zm260.825-64.24a85.293,85.293,0,0,1-52.3,7.258l-74.708-13.757a33.721,33.721,0,0,0-24.573,3.334c-.094.051-.187.107-.278.165L147.008,416.2l-24.2-79.384a54.649,54.649,0,0,0,20.164-11.374l12.219-10.878a76.612,76.612,0,0,1,79.544-7.642l5.137,2.529a65.657,65.657,0,0,0,28.4,6.553H318.1a31.06,31.06,0,0,1,30.4,24.7l-35.589-1.633a216.7,216.7,0,0,0-39.381,1.808,6,6,0,1,0,1.646,11.879,204.216,204.216,0,0,1,37.193-1.719l42.5,1.922c.091,0,.181,0,.272,0a6,6,0,0,0,6-6c0-.823-.028-1.639-.074-2.45l5.592-2.949,61.57-33.216a23.99,23.99,0,0,1,28.532,4.278Z" fill="#ed157a" data-original="#000000" style=""/><path xmlns="http://www.w3.org/2000/svg" d="M88.918,439.648a18,18,0,1,0,18-18A18.021,18.021,0,0,0,88.918,439.648Zm18-6a6,6,0,1,1-6,6A6.007,6.007,0,0,1,106.918,433.648Z" fill="#ed157a" data-original="#000000" style=""/><path xmlns="http://www.w3.org/2000/svg" d="M256,229.657a96,96,0,1,0-96-96A96.108,96.108,0,0,0,256,229.657Zm0-180a84,84,0,1,1-84,84A84.1,84.1,0,0,1,256,49.657Z" fill="#ed157a" data-original="#000000" style=""/><path xmlns="http://www.w3.org/2000/svg" d="M255.967,176.294c-.058,0-.115-.009-.173-.009s-.116.007-.174.009A18.619,18.619,0,0,1,237.191,157.7a6,6,0,0,0-6-6,5.913,5.913,0,0,0-5.9,6A30.753,30.753,0,0,0,250,187.708v9.231a6,6,0,0,0,12,0v-9.231a30.614,30.614,0,0,0-6.155-60.611,18.6,18.6,0,1,1,18.558-18.6,6,6,0,0,0,6,6,6.088,6.088,0,0,0,6.1-6A30.573,30.573,0,0,0,262,78.486V70.374a6,6,0,0,0-12,0v8.112a30.591,30.591,0,0,0,5.845,60.611,18.6,18.6,0,0,1,.122,37.2Z" fill="#ed157a" data-original="#000000" style=""/></g></svg>
